<?xml version="1.0" encoding="utf-8"?>
<!-- Generator: Adobe Illustrator 24.0.1, SVG Export Plug-In . SVG Version: 6.00 Build 0)  -->
<svg version="1.1" xmlns="http://www.w3.org/2000/svg" xmlns:xlink="http://www.w3.org/1999/xlink" x="0px" y="0px"
	 viewBox="0 0 748 224" style="enable-background:new 0 0 748 224;" xml:space="preserve">
<style type="text/css">
	.st0{display:none;}
	.st1{display:inline;}
	.st2{filter:url(#Adobe_OpacityMaskFilter);}
	.st3{fill:url(#SVGID_2_);}
	.st4{mask:url(#SVGID_1_);}
	.st5{fill:#FFFFFF;}
</style>
<g id="Capa_2" class="st0">
	<rect x="-91" y="-210" class="st1" width="891" height="460"/>
</g>
<g id="Capa_1">
	<defs>
		<filter id="Adobe_OpacityMaskFilter" filterUnits="userSpaceOnUse" x="19.3" y="25.8" width="711.3" height="181.9">
			<feColorMatrix  type="matrix" values="1 0 0 0 0  0 1 0 0 0  0 0 1 0 0  0 0 0 1 0"/>
		</filter>
	</defs>
	<mask maskUnits="userSpaceOnUse" x="19.3" y="25.8" width="711.3" height="181.9" id="SVGID_1_">
		<g class="st2">
			<linearGradient id="SVGID_2_" gradientUnits="userSpaceOnUse" x1="374.5" y1="193.3438" x2="374.5" y2="30.4641">
				<stop  offset="2.833283e-02" style="stop-color:#000000"/>
				<stop  offset="1" style="stop-color:#FFFFFF"/>
			</linearGradient>
			<rect x="11" y="15" class="st3" width="727" height="197"/>
		</g>
	</mask>
	<g class="st4">
		<path class="st5" d="M130.1,168H56.3l-13.6,37.7H19.3L80.6,37.3h25.5l61,168.3h-23.3L130.1,168z M123.8,150L93.2,64.5L62.6,150
			H123.8z"/>
		<path class="st5" d="M235.8,77.8c8.7-5,18.7-7.5,29.9-7.5c12,0,22.8,2.8,32.3,8.5c9.6,5.7,17.1,13.6,22.6,23.9
			c5.5,10.3,8.3,22.2,8.3,35.8c0,13.4-2.8,25.4-8.3,36c-5.5,10.5-13.1,18.7-22.7,24.5c-9.6,5.8-20.4,8.7-32.2,8.7
			c-11.5,0-21.6-2.5-30.2-7.5c-8.7-5-15.2-11.4-19.6-19.2v24.5h-22.1V25.8h22.1v71.4C220.4,89.3,227,82.9,235.8,77.8z M300.2,112.3
			c-4-7.4-9.5-13.1-16.4-17c-6.9-3.9-14.5-5.8-22.7-5.8c-8.1,0-15.6,2-22.5,6c-6.9,4-12.4,9.7-16.5,17.2c-4.1,7.5-6.2,16.2-6.2,26.1
			c0,10,2.1,18.8,6.2,26.4c4.1,7.5,9.6,13.3,16.5,17.2c6.9,4,14.4,6,22.5,6c8.3,0,15.8-2,22.7-6c6.9-4,12.3-9.7,16.4-17.2
			c4-7.5,6.1-16.4,6.1-26.6C306.2,128.5,304.2,119.8,300.2,112.3z"/>
		<path class="st5" d="M382.1,199.3c-10.1-5.7-18.1-13.7-23.8-24.2c-5.8-10.4-8.6-22.5-8.6-36.3c0-13.6,3-25.6,8.9-36.1
			c5.9-10.4,14-18.5,24.2-24c10.2-5.6,21.6-8.4,34.3-8.4c12.6,0,24,2.8,34.3,8.4c10.2,5.6,18.3,13.6,24.2,23.9
			c5.9,10.4,8.9,22.4,8.9,36.2c0,13.8-3,25.9-9.1,36.3c-6.1,10.4-14.3,18.5-24.7,24.2c-10.4,5.7-21.9,8.5-34.5,8.5
			C403.6,207.8,392.3,205,382.1,199.3z M438.4,182.8c7-3.7,12.6-9.3,16.9-16.8c4.3-7.4,6.4-16.5,6.4-27.2s-2.1-19.8-6.3-27.2
			c-4.2-7.4-9.7-13-16.5-16.6c-6.8-3.6-14.2-5.5-22.1-5.5c-8.1,0-15.5,1.8-22.2,5.5c-6.7,3.6-12.1,9.2-16.2,16.6
			c-4,7.5-6.1,16.5-6.1,27.2c0,10.9,2,20,6,27.5c4,7.5,9.3,13,15.9,16.6c6.6,3.6,13.9,5.5,21.9,5.5
			C424,188.4,431.4,186.5,438.4,182.8z"/>
		<path class="st5" d="M631.5,72.5v133.1h-22.1v-19.7c-4.2,6.8-10.1,12.1-17.6,15.9c-7.5,3.8-15.8,5.7-24.9,5.7
			c-10.4,0-19.7-2.1-27.9-6.4c-8.3-4.3-14.8-10.7-19.6-19.3c-4.8-8.6-7.2-19-7.2-31.3v-78h21.9v75.1c0,13.1,3.3,23.2,10,30.2
			c6.6,7,15.7,10.6,27.2,10.6c11.8,0,21.1-3.6,27.9-10.9c6.8-7.3,10.2-17.9,10.2-31.8V72.5H631.5z"/>
		<path class="st5" d="M695.9,90.7v78.5c0,6.5,1.4,11.1,4.1,13.7c2.8,2.7,7.5,4,14.3,4h16.3v18.7h-19.9c-12.3,0-21.5-2.8-27.7-8.5
			c-6.2-5.7-9.2-15-9.2-27.9V90.7h-17.2V72.5h17.2V39h22.1v33.5h34.7v18.2H695.9z"/>
	</g>
</g>
</svg>
