<?xml version="1.0" encoding="utf-8"?>
<!-- Generator: Adobe Illustrator 24.0.1, SVG Export Plug-In . SVG Version: 6.00 Build 0)  -->
<svg version="1.1" id="Capa_1" xmlns="http://www.w3.org/2000/svg" xmlns:xlink="http://www.w3.org/1999/xlink" x="0px" y="0px"
	 viewBox="0 0 38.4 17" style="enable-background:new 0 0 38.4 17;" xml:space="preserve">
<style type="text/css">
	.st0{fill:#231C1A;}
</style>
<path class="st0" d="M19.2,6.5c0.8,0.1,1.1,1,1.1,1c1.1,3.7,1.4,3.7,2.9,5.4c1.4,1.6,5.8,2.1,8.7,0.8c2.9-1.3,3.3-7,3.3-7L36,5.8
	V3.2c-2.5-0.8-10-0.9-15,0.5c-0.9,0.1-2.7,0.1-3.6,0c-5.1-1.4-12.6-1.3-15-0.5v2.6l0.8,0.8c0,0,0.3,5.7,3.3,7
	c2.9,1.3,7.3,0.8,8.7-0.8s1.7-1.7,2.9-5.4C18.1,7.4,18.4,6.6,19.2,6.5z M30.5,13.2c-2.9,0.7-6.1,0.3-7.3-2c-1.3-2.3-1.6-4.8-0.6-5.6
	c0,0,1-1.2,3.6-1.4c2.7-0.2,6.6-0.6,7.5,1.8C34.4,8.3,33.4,12.5,30.5,13.2z M4.9,5.9C5.7,3.6,9.7,4,12.3,4.2
	c2.7,0.2,3.6,1.4,3.6,1.4c0.9,0.9,0.6,3.3-0.6,5.6c-1.3,2.3-4.4,2.7-7.3,2C5,12.5,4,8.3,4.9,5.9z"/>
<g>
</g>
<g>
</g>
<g>
</g>
<g>
</g>
<g>
</g>
<g>
</g>
</svg>
