<svg width="930" height="133" viewBox="0 0 930 133" fill="none" xmlns="http://www.w3.org/2000/svg">
<g clip-path="url(#clip0_23_20)">
<path d="M44.3407 51.9331H34.9274L28.0631 62.9749L22.1804 51.9331H0.605835L28.0631 99.2553L55.5203 51.9331H44.3407ZM7.47015 55.8766H14.1377L28.0631 80.3264L41.9885 55.8766H48.656L28.0631 91.3682L7.47015 55.8766Z" fill="white"/>
</g>
<path d="M120.835 69.1599C123.728 69.1599 126.087 71.5187 126.087 74.4673C126.087 77.2754 123.728 79.6623 120.835 79.6623C117.943 79.6623 115.584 77.2754 115.584 74.4673C115.584 71.5187 117.943 69.1599 120.835 69.1599ZM107.834 96.9323C109.603 97.9994 113.478 96.3707 117.943 92.1585C116.483 90.5017 115.051 88.7045 113.703 86.823C111.44 86.6065 109.19 86.269 106.963 85.8121C105.531 91.8215 106.065 95.9495 107.834 96.9323ZM109.827 80.8136L109.013 79.3815C108.704 80.1959 108.395 81.0102 108.199 81.7965C108.957 81.965 109.799 82.1054 110.67 82.2458L109.827 80.8136ZM128.193 78.6795L130.467 74.4673L128.193 70.2551C127.35 68.7668 126.452 67.447 125.637 66.1271C124.121 66.0429 122.52 66.0429 120.835 66.0429C119.15 66.0429 117.55 66.0429 116.033 66.1271C115.219 67.447 114.32 68.7668 113.478 70.2551L111.203 74.4673L113.478 78.6795C114.32 80.1678 115.219 81.4876 116.033 82.8074C117.55 82.8917 119.15 82.8917 120.835 82.8917C122.52 82.8917 124.121 82.8917 125.637 82.8074C126.452 81.4876 127.35 80.1678 128.193 78.6795ZM120.835 59.8089C120.302 60.4266 119.74 61.0725 119.179 61.8307H122.492C121.93 61.0725 121.369 60.4266 120.835 59.8089ZM120.835 89.1257C121.369 88.5079 121.93 87.862 122.492 87.1039H119.179C119.74 87.862 120.302 88.5079 120.835 89.1257ZM133.809 52.0023C132.068 50.9352 128.193 52.5639 123.728 56.7761C125.188 58.4329 126.62 60.2301 127.968 62.1115C130.271 62.3362 132.545 62.6731 134.707 63.1224C136.14 57.1131 135.606 52.9851 133.809 52.0023ZM131.843 68.1209L132.658 69.5531C132.966 68.7387 133.275 67.9243 133.472 67.1381C132.714 66.9696 131.871 66.8292 131.001 66.6888L131.843 68.1209ZM135.915 48.3236C140.043 50.6824 140.492 56.8884 138.751 64.1334C145.884 66.2395 151.023 69.7215 151.023 74.4673C151.023 79.213 145.884 82.6951 138.751 84.8012C140.492 92.0462 140.043 98.2521 135.915 100.611C131.815 102.97 126.227 100.274 120.835 95.1351C115.444 100.274 109.856 102.97 105.728 100.611C101.628 98.2521 101.178 92.0462 102.919 84.8012C95.7868 82.6951 90.6479 79.213 90.6479 74.4673C90.6479 69.7215 95.7868 66.2395 102.919 64.1334C101.178 56.8884 101.628 50.6824 105.728 48.3236C109.856 45.9648 115.444 48.6606 120.835 53.7995C126.227 48.6606 131.815 45.9648 135.915 48.3236ZM135.101 74.4673C136.055 76.5734 136.898 78.6795 137.6 80.8136C143.497 79.0445 146.81 76.5172 146.81 74.4673C146.81 72.4173 143.497 69.89 137.6 68.1209C136.898 70.2551 136.055 72.3612 135.101 74.4673ZM106.57 74.4673C105.615 72.3612 104.773 70.2551 104.071 68.1209C98.1737 69.89 94.8601 72.4173 94.8601 74.4673C94.8601 76.5172 98.1737 79.0445 104.071 80.8136C104.773 78.6795 105.615 76.5734 106.57 74.4673ZM131.843 80.8136L131.001 82.2458C131.871 82.1054 132.714 81.965 133.472 81.7965C133.275 81.0102 132.966 80.1959 132.658 79.3815L131.843 80.8136ZM123.728 92.1585C128.193 96.3707 132.068 97.9994 133.809 96.9323C135.606 95.9495 136.14 91.8215 134.707 85.8121C132.545 86.2614 130.271 86.5984 127.968 86.823C126.62 88.7045 125.188 90.5017 123.728 92.1585ZM109.827 68.1209L110.67 66.6888C109.799 66.8292 108.957 66.9696 108.199 67.1381C108.395 67.9243 108.704 68.7387 109.013 69.5531L109.827 68.1209ZM117.943 56.7761C113.478 52.5639 109.603 50.9352 107.834 52.0023C106.065 52.9851 105.531 57.1131 106.963 63.1224C109.19 62.6655 111.44 62.3281 113.703 62.1115C115.051 60.2301 116.483 58.4329 117.943 56.7761Z" fill="#F8F8F8"/>
<g clip-path="url(#clip1_23_20)">
<path d="M211.111 50.7821L211.567 49.158C211.269 49.0717 210.954 49.0717 210.655 49.158L211.111 50.7821ZM187.814 57.5494L187.358 55.9252C186.981 56.0347 186.653 56.2765 186.434 56.6078C186.215 56.9391 186.118 57.3385 186.16 57.7355L187.814 57.5494ZM191.143 88.002L189.488 88.1881C189.519 88.4687 189.618 88.737 189.777 88.9687C189.936 89.2004 190.149 89.388 190.397 89.5144L191.143 88.002ZM211.111 98.1528L210.366 99.6653C210.597 99.7832 210.853 99.8446 211.111 99.8446C211.37 99.8446 211.626 99.7832 211.857 99.6653L211.111 98.1528ZM231.08 88.002L231.826 89.5144C232.074 89.388 232.287 89.2004 232.446 88.9687C232.605 88.737 232.704 88.4687 232.734 88.1881L231.08 88.002ZM234.409 57.5494L236.063 57.7355C236.106 57.338 236.009 56.9377 235.79 56.6057C235.571 56.2737 235.243 56.0314 234.864 55.9219L234.409 57.5494ZM211.111 59.2412L212.636 58.5645L211.111 55.0218L209.587 58.5645L211.111 59.2412ZM210.655 49.158L187.358 55.9252L188.27 59.1735L211.567 52.4063L210.655 49.158ZM186.16 57.7321L189.488 88.1847L192.797 87.8125L189.468 57.3599L186.16 57.7321ZM190.397 89.5144L210.366 99.6653L211.857 96.637L191.888 86.4861L190.397 89.5144ZM211.857 99.6653L231.826 89.5144L230.335 86.4861L210.366 96.637L211.857 99.6653ZM232.734 88.1847L236.063 57.7321L232.754 57.3599L229.426 87.8125L232.734 88.1847ZM234.864 55.9185L211.567 49.1512L210.655 52.4063L233.953 59.1735L234.864 55.9185ZM200.987 86.9869L212.636 59.9179L209.587 58.5645L197.939 85.6334L200.987 86.9869ZM209.587 59.9179L221.236 86.9869L224.284 85.6334L212.636 58.5645L209.587 59.9179ZM202.791 79.5429H219.432V76.1593H202.791V79.5429Z" fill="white"/>
</g>
<path d="M274.157 88.196C272.361 88.196 270.833 87.5481 269.574 86.2524C268.315 84.9566 267.687 83.3857 267.69 81.5397V77.1022H274.157V81.5397H280.624V61.5708H287.092V81.5397C287.092 83.3887 286.462 84.961 285.203 86.2568C283.944 87.5525 282.418 88.199 280.624 88.196H274.157ZM297.87 88.196C296.649 88.196 295.624 87.77 294.796 86.918C293.968 86.066 293.556 85.0128 293.559 83.7585V79.3209H300.026V81.5397H308.649V77.1022H297.87C296.649 77.1022 295.624 76.6762 294.796 75.8242C293.968 74.9722 293.556 73.919 293.559 72.6646V66.0083C293.559 64.751 293.973 63.6964 294.8 62.8444C295.628 61.9924 296.652 61.5679 297.87 61.5708H310.805C312.026 61.5708 313.051 61.9968 313.879 62.8488C314.706 63.7008 315.119 64.754 315.116 66.0083V70.4459H308.649V68.2271H300.026V72.6646H310.805C312.026 72.6646 313.051 73.0906 313.879 73.9426C314.706 74.7947 315.119 75.8478 315.116 77.1022V83.7585C315.116 85.0158 314.702 86.0704 313.874 86.9224C313.047 87.7744 312.023 88.199 310.805 88.196H297.87Z" fill="white"/>
<path d="M377.103 90.7326L365.411 87.5104L364.581 78.4184H370.325L370.725 83.1491L377.103 84.8603L383.48 83.1491L384.138 75.7966H364.348L362.741 58.6645H391.465L390.891 64.3341H369.06L369.576 70.1218H390.372L388.793 87.5104L377.103 90.7326ZM354.326 49.2288H399.88L395.772 95.4069L377.103 100.538L358.433 95.4069L354.326 49.2288ZM359.863 54.3597L363.158 91.3894L377.103 95.2221L391.047 91.3894L394.343 54.3597H359.863Z" fill="white"/>
<path d="M480.818 67.7846V86.2387H476.562V67.7846H480.818ZM476.325 62.6311C476.325 61.1912 477.283 60.0923 478.69 60.0923C480.135 60.0923 481.024 61.1912 481.062 62.6311C481.062 64.0332 480.132 65.1321 478.659 65.1321C477.252 65.1321 476.325 64.0332 476.325 62.6311Z" fill="white"/>
<path fill-rule="evenodd" clip-rule="evenodd" d="M470.528 86.2386L468.435 79.001H461.09L459.099 86.2386H454.74L462.154 60.6985H467.542L475.059 86.2386H470.528ZM463.561 69.1866L461.776 75.4769H467.714L465.895 69.1866C465.533 67.9292 465.218 66.5478 464.927 65.2836C464.862 64.9929 464.795 64.7024 464.728 64.412H464.659C464.541 64.9184 464.425 65.4593 464.303 66.0139C464.073 67.0818 463.832 68.191 463.561 69.1866Z" fill="white"/>
<path fill-rule="evenodd" clip-rule="evenodd" d="M484.956 42.6027C474.052 41.2682 463.048 41.2682 452.144 42.6027C445.867 43.3778 440.796 48.8379 440.06 55.8034C438.766 68.0139 438.766 80.3494 440.06 92.5599C440.796 99.5254 445.863 104.986 452.144 105.761C463.048 107.094 474.052 107.094 484.956 105.761C491.233 104.986 496.304 99.5254 497.04 92.5599C498.334 80.3494 498.334 68.014 497.04 55.8034C496.304 48.8379 491.237 43.3778 484.956 42.6027ZM452.662 47.7355C463.222 46.4433 473.878 46.4433 484.438 47.7355C488.588 48.2523 491.91 51.8659 492.394 56.4062C493.645 68.2163 493.645 80.147 492.394 91.9571C492.144 94.1792 491.223 96.2432 489.779 97.8159C488.335 99.3886 486.454 100.378 484.438 100.624C473.878 101.917 463.222 101.917 452.662 100.624C450.646 100.378 448.765 99.3886 447.321 97.8159C445.877 96.2432 444.956 94.1792 444.706 91.9571C443.455 80.147 443.455 68.2163 444.706 56.4062C444.956 54.1842 445.877 52.1201 447.321 50.5474C448.765 48.9747 450.646 47.9819 452.662 47.7355Z" fill="white"/>
<path fill-rule="evenodd" clip-rule="evenodd" d="M549.725 86.079H545.631V61.4399C547.107 61.1435 549.154 60.9211 551.94 60.9211C554.96 60.9211 557.175 61.6251 558.621 62.959C559.963 64.1817 560.833 66.1454 560.833 68.4796C560.833 70.8509 560.162 72.8146 558.886 74.1485C557.242 75.964 554.658 76.8161 551.738 76.8161C550.966 76.8161 550.262 76.7791 549.725 76.6679V86.079ZM552.107 64.404C550.966 64.404 550.161 64.5151 549.728 64.6263V73.074C550.228 73.2222 550.899 73.2592 551.741 73.2592C554.826 73.2592 556.705 71.5919 556.705 68.6649C556.705 65.886 554.96 64.404 552.107 64.404Z" fill="white"/>
<path d="M566.108 86.4863C564.125 86.4863 562.349 85.9305 561.141 85.1895L561.946 81.8919C562.886 82.5218 564.661 83.1887 566.141 83.1887C567.953 83.1887 568.759 82.3736 568.759 81.188C568.759 79.9653 568.088 79.3354 566.074 78.5573C562.886 77.3346 561.544 75.408 561.577 73.296C561.577 70.1096 563.957 67.6272 567.752 67.6272C569.564 67.6272 571.138 68.1459 572.081 68.7017L571.276 71.9251C570.219 71.2695 569.031 70.9131 567.819 70.8877C566.342 70.8877 565.537 71.6658 565.537 72.7773C565.537 73.9259 566.309 74.4817 568.39 75.2968C571.343 76.4825 572.719 78.1498 572.752 80.8175C572.752 84.078 570.434 86.4863 566.108 86.4863Z" fill="white"/>
<path fill-rule="evenodd" clip-rule="evenodd" d="M574.629 43.4125C563.967 42.1076 553.208 42.1076 542.546 43.4125C536.408 44.1704 531.45 49.5091 530.731 56.3198C529.466 68.259 529.466 80.3204 530.731 92.2596C531.45 99.0703 536.405 104.409 542.546 105.167C553.208 106.47 563.967 106.47 574.629 105.167C580.767 104.409 585.724 99.0703 586.444 92.2596C587.709 80.3204 587.709 68.259 586.444 56.3198C585.724 49.5091 580.77 44.1704 574.629 43.4125ZM543.053 48.4313C553.378 47.1677 563.797 47.1677 574.122 48.4313C578.18 48.9365 581.429 52.4699 581.902 56.9093C583.125 68.4569 583.125 80.1225 581.902 91.6701C581.657 93.8428 580.756 95.861 579.345 97.3988C577.933 98.9365 576.093 99.9039 574.122 100.145C563.797 101.408 553.378 101.408 543.053 100.145C541.082 99.9039 539.242 98.9365 537.83 97.3988C536.419 95.861 535.518 93.8428 535.273 91.6701C534.05 80.1225 534.05 68.4569 535.273 56.9093C535.518 54.7366 536.419 52.7184 537.83 51.1807C539.242 49.6429 541.082 48.6721 543.053 48.4313Z" fill="white"/>
<path opacity="0.5" d="M642.245 52.4185H630.528C627.42 52.4185 624.44 53.7815 622.242 56.2079C620.044 58.6342 618.81 61.925 618.81 65.3563C618.81 68.7876 620.044 72.0784 622.242 74.5047C624.44 76.931 627.42 78.2941 630.528 78.2941H642.245V52.4185Z" stroke="white" stroke-width="4"/>
<path d="M642.245 78.2903H630.528C627.42 78.2903 624.44 79.6534 622.242 82.0797C620.045 84.506 618.81 87.7968 618.81 91.2281C618.81 94.6594 620.045 97.9502 622.242 100.377C624.44 102.803 627.42 104.166 630.528 104.166H642.245V78.2903Z" stroke="white" stroke-width="4"/>
<path opacity="0.5" d="M665.681 91.2298C665.681 94.6611 664.447 97.9519 662.249 100.378C660.051 102.805 657.071 104.168 653.963 104.168C650.855 104.168 647.874 102.805 645.677 100.378C643.479 97.9519 642.245 94.6611 642.245 91.2298C642.245 87.7985 643.479 84.5077 645.677 82.0814C647.874 79.6551 650.855 78.292 653.963 78.292C657.071 78.292 660.051 79.6551 662.249 82.0814C664.447 84.5077 665.681 87.7985 665.681 91.2298ZM630.528 104.17H642.245V117.105C642.244 119.664 641.556 122.164 640.268 124.291C638.98 126.418 637.15 128.075 635.009 129.054C632.868 130.032 630.513 130.288 628.24 129.788C625.968 129.289 623.88 128.057 622.242 126.247C620.604 124.438 619.488 122.133 619.036 119.624C618.585 117.115 618.817 114.514 619.704 112.15C620.591 109.787 622.092 107.767 624.019 106.346C625.946 104.924 628.211 104.17 630.528 104.17Z" stroke="white" stroke-width="4"/>
<path d="M642.245 52.4185H653.961C657.069 52.4185 660.05 53.7815 662.247 56.2079C664.445 58.6342 665.68 61.925 665.68 65.3563C665.68 68.7876 664.445 72.0784 662.247 74.5047C660.05 76.931 657.069 78.2941 653.961 78.2941H642.245V52.4185Z" stroke="white" stroke-width="4"/>
<path d="M718.567 76.5824C704.748 80.8287 726.93 89.6177 744.506 81.52C742.8 80.7876 741.154 79.8956 739.586 78.8537C733.484 80.3875 727.181 80.6886 720.982 79.7425C715.123 79.0018 718.567 76.5824 718.567 76.5824ZM742.404 68.2872C734.533 70.177 726.432 70.6109 718.433 69.571C712.574 68.8797 716.42 65.769 716.42 65.769C701.215 71.2991 724.873 77.6193 746.116 70.7066C744.735 70.2056 743.468 69.3802 742.404 68.2872ZM750.543 20.2441C750.543 20.2441 719.819 28.6875 734.488 47.3517C735.06 48.1092 735.487 48.9875 735.741 49.933C735.996 50.8786 736.073 51.8715 735.968 52.8511C735.864 53.8307 735.579 54.7765 735.133 55.6308C734.686 56.485 734.086 57.2297 733.37 57.8194C733.37 57.8194 744.371 51.5487 739.318 43.6978C734.264 35.847 731 32.7363 750.543 20.2441Z" fill="white"/>
<path d="M757.743 84.6308C757.743 84.6308 760.248 86.9021 754.926 88.6796C744.774 92.0866 712.753 93.1235 703.853 88.6796C700.633 87.149 706.626 85.0258 708.326 84.5814C709.333 84.2943 710.371 84.1614 711.411 84.1864C707.834 81.4213 688.38 89.6178 701.528 91.9878C737.529 98.7524 767.001 89.2228 757.743 84.6308ZM745.4 60.5352C746.715 59.617 748.09 58.8082 749.515 58.1158C749.515 58.1158 742.761 59.4489 736.098 60.0908C728.932 60.8544 721.72 60.937 714.542 60.3377C703.898 58.807 720.222 54.3138 720.222 54.3138C715.309 54.2718 710.461 55.5423 706.089 58.017C696.877 63.1028 728.853 65.3247 745.4 60.5352ZM749.47 72.583C749.372 72.7507 749.251 72.9006 749.112 73.0274C771.473 66.5097 763.334 50.0675 752.6 54.2151C752.008 54.4555 751.494 54.8853 751.125 55.4495C751.125 55.4495 751.751 55.2026 753.048 54.8569C758.504 53.6225 766.106 62.9053 749.47 72.583ZM730.329 54.3138C727.019 46.068 715.749 38.8097 730.329 26.12C748.62 10.2702 739.273 0 739.273 0C743.03 16.3435 725.857 21.2811 719.864 31.4526C715.705 38.4147 721.966 45.8705 730.329 54.3138Z" fill="white"/>
<path d="M750.051 95.3946C736.539 97.9486 722.751 98.1818 709.175 96.0859C709.175 96.0859 711.232 97.9622 721.876 98.7028C738.021 99.8385 762.797 98.1103 763.423 89.667C763.423 89.667 762.26 92.8271 750.051 95.3946Z" fill="white"/>
<g clip-path="url(#clip2_23_20)">
<path d="M847.433 47.9949C846.629 49.9797 845.6 51.8598 844.366 53.5959C838.964 48.0396 831.638 44.9179 823.999 44.917C808.202 44.917 795.202 58.3048 795.202 74.578C795.202 78.5965 795.995 82.5732 797.532 86.2671C799.07 89.9609 801.321 93.295 804.148 96.0674L805.21 97.0366C810.4 101.54 816.97 104.012 823.76 104.016C838.779 104.016 851.405 91.9054 852.474 76.4707C853.26 68.9152 851.106 59.3589 847.433 47.9949ZM808.239 96.2363C808.008 96.5294 807.716 96.7658 807.385 96.9282C807.053 97.0906 806.691 97.1749 806.324 97.175C804.971 97.175 803.863 96.0286 803.863 94.6357C803.863 93.2433 804.978 92.0969 806.324 92.0969C806.885 92.0969 807.439 92.2967 807.873 92.6664C808.927 93.5433 809.092 95.1512 808.239 96.2363ZM847.314 87.3575C840.208 97.1058 825.031 93.8202 815.3 94.2896C815.3 94.2896 813.572 94.3976 811.837 94.6897C811.837 94.6897 812.487 94.405 813.333 94.0741C820.162 91.6275 823.393 91.1503 827.544 88.9576C835.361 84.8644 843.087 75.9086 844.696 66.5909C841.719 75.5546 832.698 83.2565 824.478 86.3879C818.846 88.527 808.673 90.6043 808.673 90.6043L808.261 90.381C801.335 86.9113 801.126 71.4692 813.714 66.4834C819.227 64.2981 824.5 65.4985 830.454 64.0364C836.812 62.4825 844.165 57.5733 847.156 51.172C850.507 61.4131 854.539 77.4473 847.314 87.3575Z" fill="white"/>
</g>
<path d="M915.655 99.5531V92.4406C915.739 91.2589 915.594 90.0709 915.23 88.9557C914.867 87.8405 914.292 86.8235 913.545 85.9724C920.593 85.1051 928 82.156 928 68.6249C927.999 65.1649 926.794 61.8376 924.633 59.3316C925.656 56.3045 925.584 52.9585 924.431 49.9888C924.431 49.9888 921.782 49.1214 915.655 53.6565C910.51 52.1171 905.087 52.1171 899.942 53.6565C893.814 49.1214 891.166 49.9888 891.166 49.9888C890.013 52.9585 889.941 56.3045 890.964 59.3316C888.787 61.8562 887.58 65.2136 887.597 68.6993C887.597 82.1312 895.004 85.0803 902.052 86.0468C901.314 86.8893 900.744 87.8941 900.381 88.9957C900.017 90.0973 899.868 91.271 899.942 92.4406V99.5531" stroke="white" stroke-width="3" stroke-linecap="round" stroke-linejoin="round"/>
<path d="M899.942 94.5963C893.208 97.0076 887.597 94.5963 884.23 87.1616" stroke="white" stroke-width="3" stroke-linecap="round" stroke-linejoin="round"/>
<defs>
<clipPath id="clip0_23_20">
<rect width="54.9145" height="54.0825" fill="white" transform="translate(0.605835 47.4263)"/>
</clipPath>
<clipPath id="clip1_23_20">
<rect width="49.9223" height="50.7543" fill="white" transform="translate(186.15 49.0903)"/>
</clipPath>
<clipPath id="clip2_23_20">
<rect width="57.4106" height="59.0747" fill="white" transform="translate(795.202 44.9299)"/>
</clipPath>
</defs>
</svg>
