<?xml version="1.0" encoding="utf-8"?>
<!-- Generator: Adobe Illustrator 24.0.1, SVG Export Plug-In . SVG Version: 6.00 Build 0)  -->
<svg version="1.1" xmlns="http://www.w3.org/2000/svg" xmlns:xlink="http://www.w3.org/1999/xlink" x="0px" y="0px"
	 viewBox="0 0 588 224" style="enable-background:new 0 0 588 224;" xml:space="preserve">
<style type="text/css">
	.st0{display:none;}
	.st1{display:inline;}
	.st2{filter:url(#Adobe_OpacityMaskFilter);}
	.st3{fill:url(#SVGID_2_);}
	.st4{mask:url(#SVGID_1_);}
	.st5{fill:#FFFFFF;}
</style>
<g id="Capa_2" class="st0">
	<rect x="-91" y="-210" class="st1" width="891" height="460"/>
</g>
<g id="Capa_1">
	<defs>
		<filter id="Adobe_OpacityMaskFilter" filterUnits="userSpaceOnUse" x="25.2" y="20.7" width="547.5" height="187">
			<feColorMatrix  type="matrix" values="1 0 0 0 0  0 1 0 0 0  0 0 1 0 0  0 0 0 1 0"/>
		</filter>
	</defs>
	<mask maskUnits="userSpaceOnUse" x="25.2" y="20.7" width="547.5" height="187" id="SVGID_1_">
		<g class="st2">
			<linearGradient id="SVGID_2_" gradientUnits="userSpaceOnUse" x1="374.5" y1="193.3438" x2="374.5" y2="30.4641">
				<stop  offset="2.833283e-02" style="stop-color:#000000"/>
				<stop  offset="1" style="stop-color:#FFFFFF"/>
			</linearGradient>
			<rect x="11" y="15" class="st3" width="727" height="197"/>
		</g>
	</mask>
	<g class="st4">
		<path class="st5" d="M53.7,201.4c-8.8-4-15.8-9.5-20.8-16.5c-5-7-7.6-15.2-7.8-24.4h23.6c0.8,7.9,4.1,14.6,9.8,20
			c5.7,5.4,14.1,8.1,25.1,8.1c10.5,0,18.8-2.6,24.9-7.9c6.1-5.3,9.1-12,9.1-20.3c0-6.5-1.8-11.7-5.3-15.8c-3.6-4-8-7.1-13.4-9.2
			c-5.3-2.1-12.6-4.4-21.6-6.8c-11.2-2.9-20.1-5.8-26.8-8.7c-6.7-2.9-12.5-7.5-17.2-13.7c-4.8-6.2-7.2-14.6-7.2-25.1
			c0-9.2,2.3-17.4,7-24.5c4.7-7.1,11.3-12.6,19.8-16.5c8.5-3.9,18.3-5.8,29.3-5.8c15.9,0,28.9,4,39,11.9
			c10.1,7.9,15.8,18.5,17.1,31.6h-24.3c-0.8-6.5-4.2-12.2-10.2-17.1c-6-4.9-13.9-7.4-23.8-7.4c-9.2,0-16.8,2.4-22.6,7.2
			c-5.8,4.8-8.7,11.5-8.7,20c0,6.2,1.7,11.2,5.2,15.1c3.5,3.9,7.8,6.8,12.9,8.9c5.1,2,12.3,4.3,21.5,6.9c11.2,3.1,20.2,6.1,27,9.1
			c6.8,3,12.6,7.6,17.5,13.8c4.9,6.2,7.3,14.7,7.3,25.4c0,8.3-2.2,16-6.6,23.3c-4.4,7.3-10.9,13.2-19.4,17.7
			c-8.6,4.5-18.7,6.8-30.4,6.8C72.5,207.3,62.5,205.3,53.7,201.4z"/>
		<path class="st5" d="M247,205.6l-52.2-58.8v58.8h-22.1V25.8h22.1v105.7l51.3-59h30.9l-62.7,66.3l62.9,66.8H247z"/>
		<path class="st5" d="M298.5,46.5c-2.9-2.9-4.4-6.5-4.4-10.7c0-4.2,1.5-7.8,4.4-10.7c2.9-2.9,6.5-4.4,10.7-4.4
			c4,0,7.5,1.5,10.3,4.4c2.8,2.9,4.3,6.5,4.3,10.7c0,4.2-1.4,7.8-4.3,10.7c-2.8,2.9-6.3,4.4-10.3,4.4
			C304.9,50.9,301.4,49.4,298.5,46.5z M319.8,72.5v133.1h-22.1V72.5H319.8z"/>
		<path class="st5" d="M379.6,25.8v179.8h-22.1V25.8H379.6z"/>
		<path class="st5" d="M439.3,25.8v179.8h-22.1V25.8H439.3z"/>
		<path class="st5" d="M496.7,202.6c-8.1-3.5-14.5-8.3-19.2-14.6c-4.7-6.2-7.3-13.4-7.8-21.5h22.8c0.6,6.6,3.8,12.1,9.4,16.3
			c5.6,4.2,12.9,6.3,22,6.3c8.4,0,15.1-1.9,19.9-5.6c4.9-3.7,7.3-8.4,7.3-14.1c0-5.8-2.6-10.2-7.8-13c-5.2-2.8-13.2-5.6-24-8.4
			c-9.9-2.6-17.9-5.2-24.2-7.9c-6.2-2.7-11.6-6.6-16-11.9c-4.5-5.3-6.7-12.2-6.7-20.8c0-6.8,2-13,6.1-18.7c4-5.7,9.8-10.2,17.2-13.5
			c7.4-3.3,15.9-5,25.5-5c14.7,0,26.6,3.7,35.7,11.2c9.1,7.5,13.9,17.7,14.6,30.6h-22.1c-0.5-7-3.3-12.5-8.4-16.8
			c-5.1-4.2-11.9-6.3-20.5-6.3c-7.9,0-14.3,1.7-18.9,5.1c-4.7,3.4-7,7.9-7,13.4c0,4.4,1.4,8,4.3,10.8c2.8,2.8,6.4,5.1,10.7,6.8
			c4.3,1.7,10.2,3.6,17.9,5.7c9.6,2.6,17.3,5.1,23.3,7.7c6,2.5,11.1,6.3,15.4,11.3c4.3,5,6.5,11.6,6.7,19.7c0,7.3-2,13.8-6.1,19.7
			c-4,5.8-9.8,10.4-17.1,13.7c-7.4,3.3-15.8,5-25.4,5C513.9,207.8,504.8,206.1,496.7,202.6z"/>
	</g>
</g>
</svg>
